<svg xmlns="http://www.w3.org/2000/svg" xmlns:xlink="http://www.w3.org/1999/xlink" xml:space="preserve" version="1.1" style="shape-rendering:geometricPrecision;text-rendering:geometricPrecision;image-rendering:optimizeQuality;" viewBox="0 0 15.23 14.3375" x="0px" y="0px" fill-rule="evenodd" clip-rule="evenodd"><defs><style type="text/css">
   
    .fil0 {fill:black}
   
  </style></defs><g><path class="fil0" d="M11.95 9.86c0.44,0 0.8,0.36 0.8,0.8 0,0.44 -0.36,0.8 -0.8,0.8 -0.44,0 -0.8,-0.36 -0.8,-0.8 0,-0.44 0.36,-0.8 0.8,-0.8zm-5.64 0c0.44,0 0.8,0.36 0.8,0.8 0,0.44 -0.36,0.8 -0.8,0.8 -0.44,0 -0.8,-0.36 -0.8,-0.8 0,-0.44 0.36,-0.8 0.8,-0.8zm-2.69 -4.41c0.19,0 0.35,0.16 0.35,0.35 0,0.19 -0.16,0.35 -0.35,0.35l-2.36 0c-0.19,0 -0.35,-0.16 -0.35,-0.35 0,-0.19 0.16,-0.35 0.35,-0.35l2.36 0zm-0.57 -1.78c0.19,0 0.35,0.16 0.35,0.35 0,0.19 -0.16,0.35 -0.35,0.35l-2.36 0c-0.19,0 -0.35,-0.16 -0.35,-0.35 0,-0.19 0.16,-0.35 0.35,-0.35l2.36 0zm-0.34 -1.63c0.19,0 0.35,0.16 0.35,0.35 0,0.19 -0.16,0.35 -0.35,0.35l-2.36 0c-0.19,0 -0.35,-0.16 -0.35,-0.35 0,-0.19 0.16,-0.35 0.35,-0.35l2.36 0zm2.14 -0.44l0.01 0 9.8 0c0.21,0 0.38,0.1 0.48,0.27 0.1,0.17 0.1,0.38 0,0.57l-2.31 4.54c-0.15,0.29 -0.44,0.48 -0.76,0.48l-5.61 0c-0,0 -0,0 -0,0.01l-0.56 0.98c-0.04,0.07 0,0.15 0.09,0.15l6.71 0c0.25,0 0.46,0.21 0.46,0.46 0,0.25 -0.21,0.46 -0.46,0.46l-6.71 0c-0.18,0 -0.36,-0.05 -0.51,-0.14 -0.15,-0.09 -0.28,-0.22 -0.37,-0.38 -0.09,-0.16 -0.14,-0.34 -0.14,-0.51 0,-0.17 0.05,-0.35 0.14,-0.51l0.37 -0.64c0.09,-0.15 0.11,-0.32 0.05,-0.49l-1.37 -4.42c-0,-0.02 -0.01,-0.03 -0.01,-0.05l-0.46 -1.43c-0,-0.01 -0.01,-0.02 -0.02,-0.03 -0.01,-0 -0.02,-0.01 -0.03,-0.01l-1.47 0c-0.25,0 -0.46,-0.21 -0.46,-0.46 0,-0.25 0.21,-0.46 0.46,-0.46l1.47 0c0.21,0 0.41,0.07 0.57,0.19 0.16,0.12 0.29,0.29 0.35,0.49l0.29 0.92z"/></g><text x="0" y="26.47" fill="#000000" font-size="5px" font-weight="bold" font-family="'Helvetica Neue', Helvetica, Arial-Unicode, Arial, Sans-serif">Created by popcornarts</text><text x="0" y="31.47" fill="#000000" font-size="5px" font-weight="bold" font-family="'Helvetica Neue', Helvetica, Arial-Unicode, Arial, Sans-serif">from the Noun Project</text></svg>